<?xml version="1.0" encoding="UTF-8" standalone="no"?>
<!-- Created with Inkscape (http://www.inkscape.org/) -->

<svg
   width="61.912502mm"
   height="61.912498mm"
   viewBox="0 0 61.912502 61.912498"
   version="1.1"
   id="svg5"
   xml:space="preserve"
   xmlns:inkscape="http://www.inkscape.org/namespaces/inkscape"
   xmlns:sodipodi="http://sodipodi.sourceforge.net/DTD/sodipodi-0.dtd"
   xmlns="http://www.w3.org/2000/svg"
   xmlns:svg="http://www.w3.org/2000/svg"><sodipodi:namedview
     id="namedview7"
     pagecolor="#ffffff"
     bordercolor="#000000"
     borderopacity="0.25"
     inkscape:showpageshadow="2"
     inkscape:pageopacity="0.0"
     inkscape:pagecheckerboard="0"
     inkscape:deskcolor="#d1d1d1"
     inkscape:document-units="mm"
     showgrid="false" /><defs
     id="defs2" /><g
     inkscape:label="Layer 1"
     inkscape:groupmode="layer"
     id="layer1"
     transform="translate(-11.022801,-121.35209)"><path
       style="fill:#000000;stroke-width:0.264583"
       d="M 26.040504,168.24689 C 11.94662,154.153 11.0228,153.17254 11.0228,152.30834 c 0,-0.86419 0.92382,-1.84466 15.017704,-15.93855 14.093885,-14.09388 15.074355,-15.0177 15.938545,-15.0177 0.8642,0 1.84466,0.92382 15.93855,15.0177 14.09388,14.09389 15.0177,15.07436 15.0177,15.93855 0,0.8642 -0.92382,1.84466 -15.0177,15.93855 -14.09389,14.09388 -15.07435,15.0177 -15.93855,15.0177 -0.86419,0 -1.84466,-0.92382 -15.938545,-15.0177 z m 30.950985,-0.92611 c 8.04149,-8.0415 14.62089,-14.7971 14.62089,-15.01244 0,-0.51177 -29.12156,-29.63333 -29.63333,-29.63333 -0.51177,0 -29.633332,29.12156 -29.633332,29.63333 0,0.51177 29.121562,29.63333 29.633332,29.63333 0.21535,0 6.97094,-6.5794 15.01244,-14.62089 z m -8.41249,3.85504 c -2.4514,-6.55096 -5.14226,-13.31123 -5.29841,-13.31123 -0.1099,0 -0.6961,0.56555 -1.30267,1.25677 -0.97214,1.10783 -1.30784,1.8839 -2.83254,6.54844 -0.951336,2.91042 -1.754032,5.3208 -1.783774,5.35642 -0.175202,0.2098 -3.319624,-1.1849 -3.319819,-1.47249 -1.3e-4,-0.19218 0.650635,-2.77451 1.446145,-5.73851 1.319295,-4.91559 1.600016,-5.66366 3.194903,-8.51386 l 1.748525,-3.12476 -0.58668,-2.18309 c -0.32267,-1.2007 -0.66642,-2.18309 -0.763893,-2.18309 -0.09747,0 -0.432793,0.34568 -0.745157,0.76818 -0.457663,0.61902 -1.219758,0.98539 -3.924956,1.88691 l -3.35702,1.11873 -0.484543,-0.63014 c -0.266499,-0.34657 -0.487191,-0.71677 -0.490427,-0.82265 -0.0032,-0.10589 1.274039,-1.04425 2.838388,-2.08524 1.564349,-1.041 2.934932,-1.97371 3.045741,-2.0727 0.110808,-0.099 0.441572,-1.04642 0.73503,-2.1054 0.670563,-2.41981 1.573734,-4.21576 2.672777,-5.31481 0.77184,-0.77183 0.97503,-0.84336 2.09117,-0.73611 1.56562,0.15044 4.052,1.31143 7.26235,3.39112 l 2.51533,1.62944 v 4.73529 4.7353 h -0.61089 c -1.21852,0 -1.41593,-0.46219 -1.75163,-4.10104 -0.17453,-1.89177 -0.39897,-3.51314 -0.49876,-3.60303 -0.0998,-0.0899 -0.55387,-0.23285 -1.00908,-0.31767 l -0.82764,-0.15421 0.6817,2.03745 c 0.59026,1.76413 0.68735,2.53438 0.72376,5.74163 0.041,3.61471 0.0851,3.87877 1.82353,10.93421 0.97982,3.97652 1.74095,7.25555 1.6914,7.28674 -0.0496,0.0312 -0.50682,0.35798 -1.01614,0.7262 -1.53832,1.11216 -1.5674,1.1171 -1.86672,0.3172 z M 36.945164,136.46724 c -1.35925,-1.35925 -1.35925,-2.94189 0,-4.30114 1.564683,-1.56468 4.515915,-0.65976 4.922865,1.50947 0.36271,1.93337 -0.99856,3.55152 -2.987721,3.55152 -0.941453,0 -1.32648,-0.15118 -1.935144,-0.75985 z"
       id="path2599"
       inkscape:export-filename="pedestrian_path.svg"
       inkscape:export-xdpi="96"
       inkscape:export-ydpi="96" /></g></svg>
